<svg xmlns="http://www.w3.org/2000/svg" xmlns:xlink="http://www.w3.org/1999/xlink" width="500" zoomAndPan="magnify" viewBox="0 0 375 374.999991" height="500" preserveAspectRatio="xMidYMid meet" version="1.2"><defs><clipPath id="71d794895b"><path d="M 60.03125 60.03125 L 314.96875 60.03125 L 314.96875 314.96875 L 60.03125 314.96875 Z M 60.03125 60.03125 "/></clipPath><clipPath id="90d6645542"><path d="M 79.332031 77.683594 L 295.328125 77.683594 L 295.328125 297.433594 L 79.332031 297.433594 Z M 79.332031 77.683594 "/></clipPath></defs><g id="9b79daea93"><g clip-rule="nonzero" clip-path="url(#71d794895b)"><path style=" stroke:none;fill-rule:nonzero;fill:#33d6ad;fill-opacity:1;" d="M 60.03125 60.03125 L 314.96875 60.03125 L 314.96875 314.96875 L 60.03125 314.96875 Z M 60.03125 60.03125 "/></g><g clip-rule="nonzero" clip-path="url(#90d6645542)"><path style=" stroke:none;fill-rule:nonzero;fill:#000000;fill-opacity:1;" d="M 203.683594 187.5625 L 295.339844 297.21875 L 209.59375 297.21875 L 117.9375 187.5625 L 209.59375 77.90625 L 295.339844 77.90625 Z M 79.332031 77.90625 L 79.332031 156.082031 L 144.988281 77.90625 Z M 79.332031 233.820312 L 79.332031 297.21875 L 180.347656 297.21875 L 103.363281 205.046875 Z M 79.332031 233.820312 "/></g></g></svg>